HIERARCHY
ROOT Hips
{
	OFFSET -1.297811 87.945839 -0.858855
	CHANNELS 6 Xposition Yposition Zposition Zrotation Yrotation Xrotation 
	JOINT Spine
	{
		OFFSET -0.000000 8.814246 -2.080107
		CHANNELS 3 Zrotation Yrotation Xrotation
		JOINT Spine1
		{
			OFFSET -0.000000 8.844141 0.000000
			CHANNELS 3 Zrotation Yrotation Xrotation
			JOINT Spine2
			{
				OFFSET 0.000000 11.682268 0.000000
				CHANNELS 3 Zrotation Yrotation Xrotation
				JOINT Spine3
				{
					OFFSET 0.000000 11.746700 0.000000
					CHANNELS 3 Zrotation Yrotation Xrotation
					JOINT Neck
					{
						OFFSET -0.000000 17.658264 -0.000000
						CHANNELS 3 Zrotation Yrotation Xrotation
						JOINT Neck1
						{
							OFFSET 0.000000 5.101515 0.000000
							CHANNELS 3 Zrotation Yrotation Xrotation
							JOINT Head
							{
								OFFSET 0.000000 5.101515 0.000000
								CHANNELS 3 Zrotation Yrotation Xrotation
								JOINT HeadEnd
								{
									OFFSET 0.000000 11.655085 -0.000000
									CHANNELS 3 Zrotation Yrotation Xrotation
									End Site
									{
										OFFSET 0.000000 0.000000 0.000000
									}
								}
							}
						}
					}
					JOINT RightShoulder
					{
						OFFSET -2.625389 11.175210 -0.000000
						CHANNELS 3 Zrotation Yrotation Xrotation
						JOINT RightArm
						{
							OFFSET -0.000000 10.434715 -0.000000
							CHANNELS 3 Zrotation Yrotation Xrotation
							JOINT RightForeArm
							{
								OFFSET 0.000000 29.628420 0.000000
								CHANNELS 3 Zrotation Yrotation Xrotation
								JOINT RightHand
								{
									OFFSET -0.000000 22.857611 -0.000000
									CHANNELS 3 Zrotation Yrotation Xrotation
									JOINT RightHandThumb1
									{
										OFFSET -2.867323 3.959563 2.944291
										CHANNELS 3 Zrotation Yrotation Xrotation
										JOINT RightHandThumb2
										{
											OFFSET 0.000000 3.350399 0.000000
											CHANNELS 3 Zrotation Yrotation Xrotation
											JOINT RightHandThumb3
											{
												OFFSET 0.000000 3.756509 -0.000000
												CHANNELS 3 Zrotation Yrotation Xrotation
												JOINT RightHandThumb4
												{
													OFFSET 0.000000 3.147345 0.000000
													CHANNELS 3 Zrotation Yrotation Xrotation
													End Site
													{
														OFFSET 0.000000 0.000000 0.000000
													}
												}
											}
										}
									}
									JOINT RightHandIndex1
									{
										OFFSET -0.086752 10.030893 2.345280
										CHANNELS 3 Zrotation Yrotation Xrotation
										JOINT RightHandIndex2
										{
											OFFSET 0.000000 4.061090 0.000000
											CHANNELS 3 Zrotation Yrotation Xrotation
											JOINT RightHandIndex3
											{
												OFFSET 0.000000 3.248873 0.000000
												CHANNELS 3 Zrotation Yrotation Xrotation
												JOINT RightHandIndex4
												{
													OFFSET 0.000000 2.639709 0.000000
													CHANNELS 3 Zrotation Yrotation Xrotation
													End Site
													{
														OFFSET 0.000000 0.000000 0.000000
													}
												}
											}
										}
									}
									JOINT RightHandMiddle1
									{
										OFFSET 0.104102 9.502952 0.006768
										CHANNELS 3 Zrotation Yrotation Xrotation
										JOINT RightHandMiddle2
										{
											OFFSET 0.000000 4.568727 0.000000
											CHANNELS 3 Zrotation Yrotation Xrotation
											JOINT RightHandMiddle3
											{
												OFFSET -0.000000 3.654981 -0.000000
												CHANNELS 3 Zrotation Yrotation Xrotation
												JOINT RightHandMiddle4
												{
													OFFSET 0.000000 2.741236 0.000000
													CHANNELS 3 Zrotation Yrotation Xrotation
													End Site
													{
														OFFSET 0.000000 0.000000 0.000000
													}
												}
											}
										}
									}
									JOINT RightHandRing1
									{
										OFFSET 0.086752 8.921708 -2.267442
										CHANNELS 3 Zrotation Yrotation Xrotation
										JOINT RightHandRing2
										{
											OFFSET -0.000000 4.061090 0.000000
											CHANNELS 3 Zrotation Yrotation Xrotation
											JOINT RightHandRing3
											{
												OFFSET -0.000000 3.654981 -0.000000
												CHANNELS 3 Zrotation Yrotation Xrotation
												JOINT RightHandRing4
												{
													OFFSET 0.000000 2.741236 0.000000
													CHANNELS 3 Zrotation Yrotation Xrotation
													End Site
													{
														OFFSET 0.000000 0.000000 0.000000
													}
												}
											}
										}
									}
									JOINT RightHandPinky1
									{
										OFFSET -0.173504 7.976997 -4.467199
										CHANNELS 3 Zrotation Yrotation Xrotation
										JOINT RightHandPinky2
										{
											OFFSET 0.000000 3.350399 0.000000
											CHANNELS 3 Zrotation Yrotation Xrotation
											JOINT RightHandPinky3
											{
												OFFSET 0.000000 2.842763 0.000000
												CHANNELS 3 Zrotation Yrotation Xrotation
												JOINT RightHandPinky4
												{
													OFFSET 0.000000 2.639709 0.000000
													CHANNELS 3 Zrotation Yrotation Xrotation
													End Site
													{
														OFFSET 0.000000 0.000000 0.000000
													}
												}
											}
										}
									}
									JOINT RightForeArmEnd
									{
										OFFSET 0.000000 0.000000 0.000000
										CHANNELS 3 Zrotation Yrotation Xrotation
										End Site
										{
											OFFSET 0.000000 0.000000 0.000000
										}
									}
								}
								JOINT RightArmEnd
								{
									OFFSET 0.000000 0.000000 0.000000
									CHANNELS 3 Zrotation Yrotation Xrotation
									End Site
									{
										OFFSET 0.000000 0.000000 0.000000
									}
								}
							}
						}
					}
					JOINT LeftShoulder
					{
						OFFSET 2.625389 11.175210 -0.000000
						CHANNELS 3 Zrotation Yrotation Xrotation
						JOINT LeftArm
						{
							OFFSET 0.000000 10.813635 0.000000
							CHANNELS 3 Zrotation Yrotation Xrotation
							JOINT LeftForeArm
							{
								OFFSET 0.000000 28.724781 -0.000000
								CHANNELS 3 Zrotation Yrotation Xrotation
								JOINT LeftHand
								{
									OFFSET 0.644384 25.716167 -0.328871
									CHANNELS 3 Zrotation Yrotation Xrotation
									JOINT LeftHandThumb1
									{
										OFFSET 2.867323 3.959563 2.944291
										CHANNELS 3 Zrotation Yrotation Xrotation
										JOINT LeftHandThumb2
										{
											OFFSET -0.000000 3.350399 -0.000000
											CHANNELS 3 Zrotation Yrotation Xrotation
											JOINT LeftHandThumb3
											{
												OFFSET 0.000000 3.756509 -0.000000
												CHANNELS 3 Zrotation Yrotation Xrotation
												JOINT LeftHandThumb4
												{
													OFFSET 0.000000 3.100000 -0.000000
													CHANNELS 3 Zrotation Yrotation Xrotation
													End Site
													{
														OFFSET 0.000000 0.000000 0.000000
													}
												}
											}
										}
									}
									JOINT LeftHandIndex1
									{
										OFFSET 0.086752 10.030893 2.345280
										CHANNELS 3 Zrotation Yrotation Xrotation
										JOINT LeftHandIndex2
										{
											OFFSET -0.000000 4.061090 0.000000
											CHANNELS 3 Zrotation Yrotation Xrotation
											JOINT LeftHandIndex3
											{
												OFFSET -0.000000 3.248873 0.000000
												CHANNELS 3 Zrotation Yrotation Xrotation
												JOINT LeftHandIndex4
												{
													OFFSET 0.000000 2.639709 -0.000000
													CHANNELS 3 Zrotation Yrotation Xrotation
													End Site
													{
														OFFSET 0.000000 0.000000 0.000000
													}
												}
											}
										}
									}
									JOINT LeftHandMiddle1
									{
										OFFSET -0.104102 9.502952 0.006768
										CHANNELS 3 Zrotation Yrotation Xrotation
										JOINT LeftHandMiddle2
										{
											OFFSET -0.000000 4.568727 0.000000
											CHANNELS 3 Zrotation Yrotation Xrotation
											JOINT LeftHandMiddle3
											{
												OFFSET 0.000000 3.654981 -0.000000
												CHANNELS 3 Zrotation Yrotation Xrotation
												JOINT LeftHandMiddle4
												{
													OFFSET -0.000000 2.741236 0.000000
													CHANNELS 3 Zrotation Yrotation Xrotation
													End Site
													{
														OFFSET 0.000000 0.000000 0.000000
													}
												}
											}
										}
									}
									JOINT LeftHandRing1
									{
										OFFSET -0.086752 8.921708 -2.267442
										CHANNELS 3 Zrotation Yrotation Xrotation
										JOINT LeftHandRing2
										{
											OFFSET -0.000000 4.061090 0.000000
											CHANNELS 3 Zrotation Yrotation Xrotation
											JOINT LeftHandRing3
											{
												OFFSET 0.000000 3.654981 -0.000000
												CHANNELS 3 Zrotation Yrotation Xrotation
												JOINT LeftHandRing4
												{
													OFFSET 0.000000 2.741236 -0.000000
													CHANNELS 3 Zrotation Yrotation Xrotation
													End Site
													{
														OFFSET 0.000000 0.000000 0.000000
													}
												}
											}
										}
									}
									JOINT LeftHandPinky1
									{
										OFFSET 0.173504 7.976997 -4.467199
										CHANNELS 3 Zrotation Yrotation Xrotation
										JOINT LeftHandPinky2
										{
											OFFSET 0.000000 3.350399 0.000000
											CHANNELS 3 Zrotation Yrotation Xrotation
											JOINT LeftHandPinky3
											{
												OFFSET -0.000000 2.842763 0.000000
												CHANNELS 3 Zrotation Yrotation Xrotation
												JOINT LeftHandPinky4
												{
													OFFSET 0.000000 2.639709 -0.000000
													CHANNELS 3 Zrotation Yrotation Xrotation
													End Site
													{
														OFFSET 0.000000 0.000000 0.000000
													}
												}
											}
										}
									}
									JOINT LeftForeArmEnd
									{
										OFFSET 0.000000 0.000000 0.000000
										CHANNELS 3 Zrotation Yrotation Xrotation
										End Site
										{
											OFFSET 0.000000 0.000000 0.000000
										}
									}
								}
								JOINT LeftArmEnd
								{
									OFFSET 0.000000 0.000000 0.000000
									CHANNELS 3 Zrotation Yrotation Xrotation
									End Site
									{
										OFFSET 0.000000 0.000000 0.000000
									}
								}
							}
						}
					}
				}
			}
		}
	}
	JOINT RightUpLeg
	{
		OFFSET -11.289943 0.000000 -0.000000
		CHANNELS 3 Zrotation Yrotation Xrotation
		JOINT RightLeg
		{
			OFFSET 0.000000 -38.200325 0.000000
			CHANNELS 3 Zrotation Yrotation Xrotation
			JOINT RightFoot
			{
				OFFSET -0.000000 -39.900856 0.000000
				CHANNELS 3 Zrotation Yrotation Xrotation
				JOINT RightToeBase
				{
					OFFSET -0.000000 -0.000000 15.261641
					CHANNELS 3 Zrotation Yrotation Xrotation
					JOINT RightToeBaseEnd
					{
						OFFSET -0.000000 0.000000 7.370709
						CHANNELS 3 Zrotation Yrotation Xrotation
						End Site
						{
							OFFSET 0.000000 0.000000 0.000000
						}
					}
				}
				JOINT RightLegEnd
				{
					OFFSET 0.000000 0.000000 0.000000
					CHANNELS 3 Zrotation Yrotation Xrotation
					End Site
					{
						OFFSET 0.000000 0.000000 0.000000
					}
				}
			}
			JOINT RightUpLegEnd
			{
				OFFSET 0.000000 0.000000 0.000000
				CHANNELS 3 Zrotation Yrotation Xrotation
				End Site
				{
					OFFSET 0.000000 0.000000 0.000000
				}
			}
		}
	}
	JOINT LeftUpLeg
	{
		OFFSET 11.315661 0.000000 -0.000000
		CHANNELS 3 Zrotation Yrotation Xrotation
		JOINT LeftLeg
		{
			OFFSET -0.000000 -38.200325 0.000000
			CHANNELS 3 Zrotation Yrotation Xrotation
			JOINT LeftFoot
			{
				OFFSET 0.000000 -39.900856 0.000000
				CHANNELS 3 Zrotation Yrotation Xrotation
				JOINT LeftToeBase
				{
					OFFSET -0.000000 -0.000000 15.261641
					CHANNELS 3 Zrotation Yrotation Xrotation
					JOINT LeftToeBaseEnd
					{
						OFFSET 0.000000 -0.000000 7.539996
						CHANNELS 3 Zrotation Yrotation Xrotation
						End Site
						{
							OFFSET 0.000000 0.000000 0.000000
						}
					}
				}
				JOINT LeftLegEnd
				{
					OFFSET 0.000000 0.000000 0.000000
					CHANNELS 3 Zrotation Yrotation Xrotation
					End Site
					{
						OFFSET 0.000000 0.000000 0.000000
					}
				}
			}
			JOINT LeftUpLegEnd
			{
				OFFSET 0.000000 0.000000 0.000000
				CHANNELS 3 Zrotation Yrotation Xrotation
				End Site
				{
					OFFSET 0.000000 0.000000 0.000000
				}
			}
		}
	}
}
MOTION
Frames: 5
Frame Time: 0.016667
-1.297811 87.945839 -0.858855 0.871432 4.129586 -20.082634 1.438955 -0.174376 10.169811 -0.257010 0.173096 1.381033 -2.271537 1.012937 16.338232 -1.961776 0.126814 8.174756 10.932196 -7.439513 7.432882 0.507398 -4.493144 -3.752044 2.563305 -0.425520 -19.910713 0.000000 -0.000000 -0.000000 93.637619 -1.063998 16.581434 39.116749 -44.559620 23.651981 0.035590 11.448720 43.034531 13.491808 4.641536 -7.011019 11.835789 -1.931521 39.346298 -0.000000 -0.000000 -28.799999 0.000000 -0.000000 -20.000000 0.000000 0.000000 -0.000000 19.487225 -0.000000 -9.047336 13.641058 -0.000000 -0.000000 13.641058 0.000000 -0.000000 -0.000000 0.000000 0.000000 18.335276 -0.000000 -10.300463 12.834693 -0.000000 0.000000 12.834693 0.000000 -0.000000 0.000000 -0.000000 0.000000 19.882597 -0.000000 -10.377805 13.917818 0.000000 -0.000000 13.917818 -0.000000 0.000000 -0.000000 -0.000000 0.000000 20.436838 -0.000000 -11.654718 14.305786 -0.000000 0.000000 14.305786 0.000000 -0.000000 -0.000000 0.000000 -0.000000 -0.000000 0.000000 -0.000000 -0.000000 0.000000 0.000000 -89.697075 -0.046192 9.658900 -56.639759 25.846649 5.204537 -0.484206 -10.235625 58.062481 -10.780495 -10.839329 -11.627364 -12.435397 1.968814 39.088257 0.000000 0.000000 -30.240000 0.000000 -0.000000 -21.000000 -0.000000 0.000000 -0.000000 -21.838415 -0.000000 -9.183940 -15.286890 -0.000000 -0.000000 -15.286890 0.000000 -0.000000 -0.000000 0.000000 0.000000 -21.382181 0.000000 -10.356667 -14.967526 -0.000000 0.000000 -14.967526 0.000000 -0.000000 -0.000000 -0.000000 -0.000000 -24.588089 0.000000 -11.876445 -17.211662 0.000000 -0.000000 -17.211662 -0.000000 0.000000 -0.000000 0.000000 -0.000000 -26.413795 0.000000 -13.987967 -18.489656 -0.000000 -0.000000 -18.489656 -0.000000 -0.000000 -0.000000 0.000000 0.000000 -0.000000 0.000000 0.000000 0.000000 -0.000000 0.000000 -8.768239 -13.169131 26.765821 -0.101812 -1.057915 5.856166 2.743681 -14.221717 14.284022 -1.398451 1.557734 -15.666923 -0.000000 -0.000000 -0.000000 -0.000000 -0.000000 0.000000 -0.000000 0.000000 -0.000000 3.400151 -5.475967 18.239943 0.238529 1.090543 11.796763 -1.302682 -2.875556 15.920522 0.476721 -1.254635 -19.595583 -0.000000 -0.000000 0.000000 0.000000 -0.000000 -0.000000 -0.000000 0.000000 0.000000 
-1.323287 87.948982 -0.833436 0.818143 3.665030 -20.096930 1.443854 -0.196094 10.201373 -0.236800 0.162928 1.439169 -2.176486 0.859187 16.284616 -1.937584 0.083981 8.133930 10.994089 -7.423054 7.452153 0.532111 -4.440649 -3.731928 2.563414 -0.427173 -19.914314 0.000000 0.000000 -0.000000 93.668091 -1.067103 16.501532 39.530548 -45.424717 23.438816 0.058681 11.143824 42.588135 13.111136 5.720836 -6.821080 11.835789 -1.931521 39.346298 0.000000 -0.000000 -28.799999 -0.000000 0.000000 -20.000000 0.000000 -0.000000 0.000000 19.208549 -0.000000 -9.106727 13.445985 0.000000 -0.000000 13.445985 -0.000000 0.000000 0.000000 -0.000000 0.000000 18.033131 0.000000 -10.309238 12.623191 0.000000 -0.000000 12.623191 -0.000000 0.000000 -0.000000 -0.000000 0.000000 19.481194 0.000000 -10.381714 13.636835 0.000000 -0.000000 13.636835 -0.000000 -0.000000 0.000000 -0.000000 0.000000 19.941153 -0.000000 -11.694061 13.958806 -0.000000 -0.000000 13.958806 0.000000 0.000000 0.000000 0.000000 -0.000000 0.000000 0.000000 0.000000 -0.000000 0.000000 0.000000 -89.737823 -0.039501 9.726991 -56.363461 26.458019 5.573374 -0.464394 -9.639803 57.114635 -10.341765 -11.179880 -11.513098 -12.435397 1.968814 39.088257 -0.000000 0.000000 -30.240000 0.000000 -0.000000 -21.000000 0.000000 0.000000 -0.000000 -21.657654 0.000000 -9.361720 -15.160357 -0.000000 -0.000000 -15.160357 0.000000 0.000000 0.000000 0.000000 -0.000000 -21.202662 0.000000 -10.463746 -14.841863 0.000000 -0.000000 -14.841863 -0.000000 -0.000000 -0.000000 0.000000 0.000000 -24.411240 0.000000 -11.883525 -17.087868 0.000000 0.000000 -17.087868 0.000000 0.000000 -0.000000 -0.000000 -0.000000 -26.245539 0.000000 -13.912287 -18.371878 0.000000 -0.000000 -18.371878 -0.000000 0.000000 0.000000 -0.000000 0.000000 -0.000000 -0.000000 -0.000000 0.000000 -0.000000 0.000000 -8.635176 -12.981721 26.691683 -0.102235 -1.056775 5.846268 2.678134 -13.970063 14.361734 -1.389183 1.553582 -15.681160 -0.000000 -0.000000 -0.000000 -0.000000 0.000000 -0.000000 -0.000000 0.000000 -0.000000 3.533252 -5.271229 18.361380 0.238455 1.087706 11.816967 -1.337338 -2.642462 15.835980 0.488307 -1.252357 -19.584885 -0.000000 -0.000000 0.000000 0.000000 -0.000000 -0.000000 -0.000000 0.000000 -0.000000 
-1.347562 87.951584 -0.800238 0.766771 3.236877 -20.106453 1.448042 -0.195278 10.216491 -0.220234 0.149805 1.478996 -2.082288 0.678220 16.244486 -1.914970 0.031626 8.126141 11.060084 -7.422564 7.465055 0.549771 -4.381587 -3.706421 2.559968 -0.428691 -19.909468 0.000000 -0.000000 -0.000000 93.668114 -1.061192 16.422585 40.083630 -46.188339 23.142736 0.076527 11.007375 42.164680 12.686441 6.867109 -6.642233 11.835789 -1.931521 39.346298 0.000000 -0.000000 -28.799999 0.000000 0.000000 -20.000000 0.000000 0.000000 -0.000000 19.255371 0.000000 -8.968691 13.478760 0.000000 -0.000000 13.478760 -0.000000 0.000000 0.000000 0.000000 0.000000 18.011169 0.000000 -10.270698 12.607819 -0.000000 -0.000000 12.607819 -0.000000 0.000000 0.000000 -0.000000 0.000000 19.268854 0.000000 -10.504094 13.488197 -0.000000 0.000000 13.488197 -0.000000 -0.000000 -0.000000 -0.000000 -0.000000 19.547298 0.000000 -11.985576 13.683109 -0.000000 -0.000000 13.683109 0.000000 -0.000000 -0.000000 0.000000 -0.000000 -0.000000 0.000000 0.000000 -0.000000 0.000000 0.000000 -89.743668 -0.038851 9.818277 -56.061554 27.263157 5.995270 -0.452691 -9.155435 56.196049 -9.958928 -11.150481 -11.473378 -12.435397 1.968814 39.088257 -0.000000 0.000000 -30.240000 -0.000000 -0.000000 -21.000000 0.000000 0.000000 -0.000000 -21.321478 0.000000 -9.396437 -14.925035 -0.000000 -0.000000 -14.925035 0.000000 0.000000 0.000000 0.000000 -0.000000 -20.881235 0.000000 -10.476442 -14.616864 -0.000000 -0.000000 -14.616864 -0.000000 0.000000 0.000000 0.000000 -0.000000 -24.100262 -0.000000 -11.842847 -16.870182 -0.000000 -0.000000 -16.870182 -0.000000 -0.000000 -0.000000 0.000000 -0.000000 -25.958567 0.000000 -13.827119 -18.170998 -0.000000 -0.000000 -18.170998 0.000000 -0.000000 0.000000 -0.000000 -0.000000 -0.000000 0.000000 0.000000 0.000000 -0.000000 0.000000 -8.522798 -12.830793 26.639227 -0.102656 -1.055457 5.819247 2.616175 -13.714233 14.440351 -1.379221 1.549577 -15.697372 -0.000000 -0.000000 -0.000000 -0.000000 0.000000 -0.000000 -0.000000 0.000000 -0.000000 3.649873 -5.103149 18.479437 0.238382 1.084604 11.833350 -1.371504 -2.406892 15.751726 0.499664 -1.249880 -19.573048 0.000000 -0.000000 -0.000000 0.000000 -0.000000 -0.000000 -0.000000 0.000000 0.000000 
-1.368358 87.954109 -0.762900 0.718699 2.845780 -20.108713 1.454153 -0.176114 10.215779 -0.211265 0.135163 1.507408 -1.986335 0.469860 16.213776 -1.895253 -0.031391 8.141829 11.126176 -7.428676 7.472452 0.562524 -4.310833 -3.672634 2.545302 -0.430067 -19.897713 0.000000 -0.000000 -0.000000 93.629227 -1.043826 16.343348 40.774929 -46.870930 22.751703 0.089793 11.042646 41.844425 11.953928 7.949467 -6.586158 12.135554 -1.950834 39.216908 0.000000 -0.000000 -29.520000 -0.000000 -0.000000 -20.500000 0.000000 0.000000 -0.000000 19.655746 0.000000 -8.870790 13.759023 -0.000000 -0.000000 13.759023 -0.000000 0.000000 0.000000 0.000000 0.000000 18.196249 -0.000000 -10.168237 12.737374 -0.000000 -0.000000 12.737374 0.000000 -0.000000 0.000000 0.000000 0.000000 18.896395 -0.000000 -10.336911 13.227476 -0.000000 -0.000000 13.227476 -0.000000 -0.000000 -0.000000 0.000000 0.000000 18.593355 -0.000000 -11.673466 13.015348 0.000000 0.000000 13.015348 -0.000000 -0.000000 -0.000000 0.000000 -0.000000 -0.000000 0.000000 0.000000 -0.000000 -0.000000 0.000000 -89.722923 -0.042905 9.924510 -55.765949 28.209354 6.449477 -0.446871 -8.763211 55.304611 -9.571136 -10.922853 -11.454969 -12.135554 1.950834 39.216908 -0.000000 0.000000 -29.520000 0.000000 -0.000000 -20.500000 0.000000 -0.000000 0.000000 -21.065119 -0.000000 -9.141879 -14.745583 0.000000 -0.000000 -14.745583 -0.000000 0.000000 0.000000 0.000000 -0.000000 -20.634565 -0.000000 -10.305415 -14.444196 -0.000000 -0.000000 -14.444196 -0.000000 -0.000000 0.000000 0.000000 -0.000000 -23.834965 -0.000000 -11.721608 -16.684475 0.000000 -0.000000 -16.684475 0.000000 0.000000 0.000000 0.000000 -0.000000 -25.688745 -0.000000 -13.747078 -17.982122 -0.000000 -0.000000 -17.982122 0.000000 0.000000 -0.000000 -0.000000 0.000000 -0.000000 0.000000 0.000000 0.000000 -0.000000 0.000000 -8.426104 -12.703945 26.595348 -0.103077 -1.053647 5.787413 2.561838 -13.468083 14.516280 -1.369320 1.547252 -15.717088 -0.000000 -0.000000 -0.000000 -0.000000 0.000000 -0.000000 -0.000000 0.000000 -0.000000 3.745290 -4.974182 18.585697 0.238310 1.081741 11.851885 -1.404511 -2.164814 15.669961 0.511273 -1.247029 -19.562963 0.000000 -0.000000 0.000000 0.000000 -0.000000 -0.000000 -0.000000 0.000000 0.000000 
-1.390811 87.953590 -0.730971 0.675703 2.453892 -20.098440 1.470002 -0.174429 10.236607 -0.227334 0.131443 1.523705 -1.908511 0.280384 16.155874 -1.870560 -0.088588 8.128934 11.196824 -7.441392 7.493917 0.575867 -4.231594 -3.616296 2.527454 -0.431021 -19.857988 0.000000 -0.000000 -0.000000 93.566429 -1.019068 16.256296 41.766396 -47.309944 22.113905 0.103356 11.190497 41.563087 10.962820 9.286295 -6.502072 12.135554 -1.950834 39.216908 0.000000 -0.000000 -29.520000 -0.000000 -0.000000 -20.500000 0.000000 0.000000 -0.000000 19.631027 -0.000000 -8.493601 13.741719 -0.000000 0.000000 13.741719 -0.000000 0.000000 -0.000000 -0.000000 0.000000 18.031788 -0.000000 -9.848503 12.622252 0.000000 -0.000000 12.622252 -0.000000 0.000000 0.000000 0.000000 0.000000 18.320932 -0.000000 -10.082821 12.824652 -0.000000 0.000000 12.824652 0.000000 -0.000000 -0.000000 -0.000000 -0.000000 17.607594 -0.000000 -11.459607 12.325315 0.000000 -0.000000 12.325315 0.000000 0.000000 0.000000 0.000000 -0.000000 0.000000 0.000000 0.000000 -0.000000 -0.000000 0.000000 -89.692856 -0.048720 10.035323 -55.513111 29.168987 6.888810 -0.431487 -8.337528 54.430065 -9.213456 -10.780491 -11.355707 -12.135554 1.950834 39.216908 -0.000000 -0.000000 -29.520000 -0.000000 -0.000000 -20.500000 0.000000 0.000000 -0.000000 -21.084839 -0.000000 -8.932205 -14.759387 0.000000 -0.000000 -14.759387 -0.000000 -0.000000 -0.000000 0.000000 0.000000 -20.626226 -0.000000 -10.146804 -14.438358 -0.000000 -0.000000 -14.438358 0.000000 0.000000 -0.000000 0.000000 0.000000 -23.737659 -0.000000 -11.564397 -16.616362 0.000000 -0.000000 -16.616362 -0.000000 0.000000 -0.000000 -0.000000 0.000000 -25.501450 0.000000 -13.582741 -17.851015 -0.000000 -0.000000 -17.851015 -0.000000 -0.000000 0.000000 -0.000000 -0.000000 -0.000000 0.000000 0.000000 0.000000 -0.000000 0.000000 -8.307919 -12.540332 26.524353 -0.103497 -1.051628 5.769636 2.513095 -13.264570 14.568465 -1.361292 1.545560 -15.714001 -0.000000 -0.000000 -0.000000 -0.000000 0.000000 -0.000000 -0.000000 0.000000 -0.000000 3.839754 -4.839012 18.670921 0.238239 1.079522 11.881628 -1.439893 -1.926960 15.581759 0.523268 -1.243869 -19.549244 -0.000000 -0.000000 0.000000 0.000000 0.000000 -0.000000 -0.000000 0.000000 -0.000000 
